<?xml version="1.0" encoding="UTF-8" standalone="no"?>
<!DOCTYPE svg PUBLIC "-//W3C//DTD SVG 1.1//EN" "http://www.w3.org/Graphics/SVG/1.1/DTD/svg11.dtd">
<svg xmlns="http://www.w3.org/2000/svg" version="1.1" viewBox="0.00 0.00 1516.00 233.00">
<g stroke-width="2.00" fill="none" stroke-linecap="butt">
<path stroke="#0092d1" vector-effect="non-scaling-stroke" d="
  M 1456.39 36.61
  L 1453.13 39.49"
/>
<path stroke="#135ca1" vector-effect="non-scaling-stroke" d="
  M 1385.64 27.94
  Q 1384.24 29.99 1381.31 28.16"
/>
<path stroke="#6990bc" vector-effect="non-scaling-stroke" d="
  M 1413.15 42.73
  L 1422.34 48.65"
/>
<path stroke="#1377be" vector-effect="non-scaling-stroke" d="
  M 1436.00 59.24
  L 1431.47 66.12"
/>
<path stroke="#6990bc" vector-effect="non-scaling-stroke" d="
  M 1409.58 49.94
  L 1400.91 45.02"
/>
<path stroke="#135ca1" vector-effect="non-scaling-stroke" d="
  M 1384.28 37.49
  Q 1382.02 35.95 1380.40 36.07"
/>
<path stroke="#6990bc" vector-effect="non-scaling-stroke" d="
  M 1338.50 79.15
  L 1343.30 83.96"
/>
<path stroke="#135ca1" vector-effect="non-scaling-stroke" d="
  M 1410.46 117.65
  Q 1410.54 117.38 1411.33 118.07"
/>
<path stroke="#1377be" vector-effect="non-scaling-stroke" d="
  M 1411.33 118.07
  L 1411.09 126.25"
/>
<path stroke="#6990bc" vector-effect="non-scaling-stroke" d="
  M 1410.32 126.20
  L 1400.58 124.07"
/>
<path stroke="#6990bc" vector-effect="non-scaling-stroke" d="
  M 1337.67 89.45
  L 1333.05 84.86"
/>
<path stroke="#0092d1" vector-effect="non-scaling-stroke" d="
  M 1489.51 122.67
  L 1484.79 128.95"
/>
<path stroke="#0092d1" vector-effect="non-scaling-stroke" d="
  M 1466.36 149.31
  L 1461.22 153.50"
/>
<path stroke="#0092d1" vector-effect="non-scaling-stroke" d="
  M 1411.33 118.07
  L 1412.41 112.80"
/>
<path stroke="#56c7ec" vector-effect="non-scaling-stroke" d="
  M 1442.15 51.08
  L 1446.80 45.78"
/>
<path stroke="#56acce" vector-effect="non-scaling-stroke" d="
  M 1385.30 50.16
  L 1386.39 57.01"
/>
<path stroke="#56acce" vector-effect="non-scaling-stroke" d="
  M 1382.28 58.85
  L 1380.94 52.05"
/>
<path stroke="#0092d1" vector-effect="non-scaling-stroke" d="
  M 1461.95 43.68
  L 1458.71 46.69"
/>
<path stroke="#56c7ec" vector-effect="non-scaling-stroke" d="
  M 1454.06 51.18
  L 1449.49 56.38"
/>
<path stroke="#1377be" vector-effect="non-scaling-stroke" d="
  M 1442.38 65.80
  L 1438.00 72.61"
/>
<path stroke="#56c7ec" vector-effect="non-scaling-stroke" d="
  M 1422.21 110.42
  L 1420.46 120.00"
/>
<path stroke="#1377be" vector-effect="non-scaling-stroke" d="
  M 1420.46 120.00
  L 1419.90 127.43"
/>
<path stroke="#0092d1" vector-effect="non-scaling-stroke" d="
  M 1419.90 127.43
  L 1419.77 129.24"
/>
<path stroke="#0092d1" vector-effect="non-scaling-stroke" d="
  M 1448.72 150.44
  Q 1450.97 149.44 1452.87 147.18"
/>
<path stroke="#0092d1" vector-effect="non-scaling-stroke" d="
  M 1485.40 111.26
  L 1489.05 104.45"
/>
<path stroke="#6990bc" vector-effect="non-scaling-stroke" d="
  M 1455.43 83.28
  L 1450.98 76.23"
/>
<path stroke="#135ca1" vector-effect="non-scaling-stroke" d="
  M 1425.10 127.60
  L 1419.90 127.43"
/>
<path stroke="#6990bc" vector-effect="non-scaling-stroke" d="
  M 1420.46 120.00
  L 1421.19 119.50"
/>
<path stroke="#6990bc" vector-effect="non-scaling-stroke" d="
  M 1450.72 91.55
  Q 1449.51 87.75 1447.05 84.89"
/>
</g>
<path fill="#0077b3" d="
  M 1456.39 36.61
  L 1453.13 39.49
  C 1442.57 26.71 1428.00 13.49 1412.52 9.95
  C 1397.12 6.43 1390.13 14.50 1385.64 27.94
  Q 1384.24 29.99 1381.31 28.16
  C 1383.74 13.99 1393.63 3.49 1408.52 4.76
  C 1426.88 6.32 1445.45 22.38 1456.39 36.61
  Z"
/>
<path fill="#25408e" d="
  M 1381.31 28.16
  Q 1384.24 29.99 1385.64 27.94
  Q 1385.17 29.43 1386.19 29.81
  Q 1399.26 34.70 1413.15 42.73
  L 1422.34 48.65
  L 1436.00 59.24
  L 1431.47 66.12
  Q 1421.38 56.28 1409.58 49.94
  L 1400.91 45.02
  Q 1392.74 40.24 1384.28 37.49
  Q 1382.02 35.95 1380.40 36.07
  C 1367.04 31.46 1342.06 26.26 1329.11 35.42
  C 1317.34 43.74 1323.29 59.15 1329.92 68.58
  Q 1334.46 75.04 1338.50 79.15
  L 1343.30 83.96
  Q 1371.27 109.15 1407.84 117.90
  Q 1408.57 118.08 1409.16 118.07
  Q 1410.42 118.05 1410.46 117.65
  Q 1410.54 117.38 1411.33 118.07
  L 1411.09 126.25
  L 1410.32 126.20
  L 1400.58 124.07
  Q 1365.15 114.01 1337.67 89.45
  L 1333.05 84.86
  Q 1323.04 74.42 1317.60 62.17
  C 1305.82 35.64 1328.33 21.72 1351.50 22.86
  Q 1366.73 23.61 1381.31 28.16
  Z"
/>
<path fill="#00adee" d="
  M 1489.51 122.67
  L 1484.79 128.95
  Q 1476.64 139.97 1466.36 149.31
  L 1461.22 153.50
  Q 1450.13 161.22 1438.70 162.68
  C 1421.15 164.93 1411.64 148.67 1411.25 133.48
  Q 1411.16 129.88 1411.09 126.25
  L 1411.33 118.07
  L 1412.41 112.80
  Q 1418.25 87.60 1431.47 66.12
  L 1436.00 59.24
  L 1442.15 51.08
  L 1446.80 45.78
  L 1453.13 39.49
  L 1456.39 36.61
  C 1473.74 22.26 1502.04 14.27 1509.56 44.37
  C 1511.97 54.04 1511.30 65.01 1509.10 74.67
  Q 1503.26 100.44 1489.51 122.67
  Z
  M 1461.95 43.68
  L 1458.71 46.69
  L 1454.06 51.18
  L 1449.49 56.38
  L 1442.38 65.80
  L 1438.00 72.61
  Q 1427.08 90.13 1422.21 110.42
  L 1420.46 120.00
  L 1419.90 127.43
  L 1419.77 129.24
  C 1419.28 147.39 1429.12 160.73 1448.72 150.44
  Q 1450.97 149.44 1452.87 147.18
  Q 1454.00 147.34 1454.78 146.77
  Q 1474.06 132.62 1485.40 111.26
  L 1489.05 104.45
  Q 1489.67 103.67 1491.27 100.31
  C 1498.72 84.75 1506.46 59.89 1500.29 43.55
  C 1492.90 23.98 1472.73 34.05 1461.95 43.68
  Z"
/>
<path fill="#0077b3" d="
  M 1384.28 37.49
  L 1385.30 50.16
  L 1386.39 57.01
  Q 1393.70 87.10 1412.41 112.80
  L 1411.33 118.07
  Q 1410.54 117.38 1410.46 117.65
  Q 1390.14 91.18 1382.28 58.85
  L 1380.94 52.05
  Q 1381.07 51.66 1381.00 51.25
  Q 1379.80 43.87 1380.40 36.07
  Q 1382.02 35.95 1384.28 37.49
  Z"
/>
<path fill="#ace0e9" d="
  M 1446.80 45.78
  L 1442.15 51.08
  Q 1432.57 47.67 1422.34 48.65
  L 1413.15 42.73
  Q 1430.53 39.48 1446.80 45.78
  Z"
/>
<path fill="#0077b3" d="
  M 1461.95 43.68
  Q 1482.29 71.05 1489.05 104.45
  L 1485.40 111.26
  C 1482.35 87.74 1472.37 65.91 1458.71 46.69
  L 1461.95 43.68
  Z"
/>
<path fill="#ace0e9" d="
  M 1400.91 45.02
  L 1409.58 49.94
  Q 1396.95 52.61 1386.39 57.01
  L 1385.30 50.16
  L 1400.91 45.02
  Z"
/>
<path fill="#ace0e9" d="
  M 1454.06 51.18
  C 1461.95 60.83 1460.93 72.79 1455.43 83.28
  L 1450.98 76.23
  Q 1456.20 65.13 1449.49 56.38
  L 1454.06 51.18
  Z"
/>
<path fill="#ace0e9" d="
  M 1380.94 52.05
  L 1382.28 58.85
  Q 1361.03 68.04 1343.30 83.96
  L 1338.50 79.15
  Q 1357.76 62.10 1380.94 52.05
  Z"
/>
<path fill="#25408e" d="
  M 1442.38 65.80
  L 1450.98 76.23
  L 1455.43 83.28
  C 1470.54 110.10 1452.12 128.13 1425.10 127.60
  L 1419.90 127.43
  L 1420.46 120.00
  L 1421.19 119.50
  Q 1421.71 120.35 1422.49 119.86
  C 1439.11 121.40 1460.61 113.17 1450.72 91.55
  Q 1449.51 87.75 1447.05 84.89
  C 1445.93 81.02 1440.96 75.55 1438.00 72.61
  L 1442.38 65.80
  Z"
/>
<path fill="#0b133c" d="
  M 707.51 116.11
  C 701.82 89.89 722.95 71.21 748.13 82.01
  A 1.33 1.32 15.6 0 1 748.92 83.41
  L 747.33 94.47
  A 0.65 0.64 24.0 0 1 746.28 94.87
  C 737.83 87.86 724.98 89.55 721.78 101.23
  C 716.86 119.15 730.51 132.00 747.50 121.09
  Q 748.11 120.70 748.20 121.31
  L 749.84 132.05
  Q 749.92 132.56 749.47 132.81
  C 732.79 142.13 711.87 136.21 707.51 116.11
  Z"
/>
<ellipse fill="#0b133c" cx="0.00" cy="0.00" transform="translate(867.30,84.66) rotate(2.4)" rx="5.93" ry="5.67"/>
<path fill="#0b133c" d="
  M 1070.45 110.81
  C 1069.77 98.13 1074.46 84.70 1087.75 80.53
  Q 1100.18 76.63 1111.50 82.40
  A 1.73 1.72 -72.4 0 1 1112.42 84.19
  L 1111.22 92.43
  A 0.65 0.64 -68.2 0 1 1110.21 92.87
  C 1091.31 79.72 1078.09 96.55 1082.27 114.73
  C 1085.50 128.73 1100.56 130.45 1110.74 123.07
  A 0.94 0.94 0.0 0 1 1112.23 123.69
  L 1113.39 131.31
  A 1.26 1.26 0.0 0 1 1112.79 132.57
  C 1093.83 143.73 1071.69 133.69 1070.45 110.81
  Z"
/>
<path fill="#0b133c" d="
  M 783.19 84.69
  C 789.55 77.29 803.35 78.61 811.37 82.26
  A 1.33 1.33 0.0 0 1 812.13 83.68
  L 810.85 91.60
  A 0.83 0.83 0.0 0 1 809.57 92.16
  C 805.42 89.42 799.00 87.23 793.98 88.77
  C 786.66 91.02 789.73 97.91 794.87 100.34
  C 802.24 103.81 808.88 106.23 812.05 110.32
  C 816.27 115.74 815.83 124.35 812.19 129.69
  C 805.43 139.59 788.82 137.14 779.27 133.10
  A 1.14 1.14 0.0 0 1 778.59 131.87
  L 779.95 123.47
  A 0.69 0.69 0.0 0 1 780.99 122.99
  C 785.73 125.88 797.34 130.04 802.14 125.98
  C 807.56 121.42 803.60 116.29 798.87 113.83
  C 792.39 110.45 783.47 108.54 780.36 101.00
  Q 776.73 92.20 783.19 84.69
  Z"
/>
<path fill="#0b133c" d="
  M 602.95 115.48
  C 602.73 103.85 602.45 92.18 602.80 80.53
  A 0.54 0.54 0.0 0 1 603.34 80.00
  L 616.15 80.00
  A 0.61 0.61 0.0 0 1 616.76 80.61
  Q 616.73 95.56 616.78 110.40
  Q 616.80 116.75 617.54 118.97
  C 620.80 128.68 635.33 126.25 635.42 115.43
  Q 635.58 98.04 635.47 80.82
  A 0.82 0.82 0.0 0 1 636.29 80.00
  L 648.98 80.00
  A 0.59 0.59 0.0 0 1 649.57 80.58
  Q 649.95 95.46 649.68 110.47
  Q 649.50 120.22 647.84 124.26
  C 642.48 137.31 623.84 140.09 612.62 133.61
  Q 603.20 128.17 602.95 115.48
  Z"
/>
<path fill="#0b133c" d="
  M 691.30 106.71
  C 703.33 110.95 702.86 127.46 692.47 133.18
  C 684.58 137.53 669.78 136.05 660.42 135.98
  A 0.45 0.45 0.0 0 1 659.98 135.53
  L 659.99 80.41
  A 0.40 0.39 -90.0 0 1 660.38 80.01
  C 671.09 79.97 698.94 76.12 698.22 94.51
  Q 697.93 101.94 691.22 105.84
  A 0.48 0.48 0.0 0 0 691.30 106.71
  Z
  M 673.08 91.61
  L 673.02 101.15
  A 1.47 1.47 0.0 0 0 674.48 102.63
  L 678.46 102.65
  A 7.03 5.96 0.4 0 0 685.53 96.74
  L 685.53 96.18
  A 7.03 5.96 0.4 0 0 678.54 90.17
  L 674.56 90.15
  A 1.47 1.47 0.0 0 0 673.08 91.61
  Z
  M 673.05 112.50
  L 673.03 124.74
  A 1.00 1.00 0.0 0 0 674.03 125.74
  L 679.12 125.75
  A 7.63 6.28 0.1 0 0 686.76 119.48
  L 686.76 117.80
  A 7.63 6.28 0.1 0 0 679.14 111.51
  L 674.05 111.50
  A 1.00 1.00 0.0 0 0 673.05 112.50
  Z"
/>
<path fill="#ace0e9" d="
  M 1447.05 84.89
  Q 1449.51 87.75 1450.72 91.55
  Q 1438.16 108.05 1421.19 119.50
  L 1420.46 120.00
  L 1422.21 110.42
  Q 1436.95 99.72 1447.05 84.89
  Z"
/>
<path fill="#ace0e9" d="
  M 1333.05 84.86
  L 1337.67 89.45
  C 1328.58 99.33 1313.00 121.44 1329.15 132.83
  C 1347.13 145.50 1382.75 133.18 1400.58 124.07
  L 1410.32 126.20
  C 1389.23 138.69 1359.56 148.93 1335.26 143.03
  C 1319.03 139.07 1311.58 124.38 1317.66 108.41
  Q 1322.56 95.56 1333.05 84.86
  Z"
/>
<path fill="#0b133c" d="
  M 826.44 102.19
  C 832.27 94.59 844.61 94.54 852.28 98.80
  A 1.39 1.39 0.0 0 1 852.98 100.23
  L 851.87 107.22
  A 0.68 0.68 0.0 0 1 850.80 107.66
  C 847.16 105.03 841.92 103.58 837.74 105.26
  C 831.11 107.93 830.36 118.26 833.66 123.59
  C 837.46 129.73 845.62 129.06 851.15 124.92
  A 0.76 0.76 0.0 0 1 852.35 125.40
  L 853.43 131.84
  A 1.58 1.58 0.0 0 1 852.66 133.48
  C 844.76 138.03 833.64 138.31 827.14 131.44
  C 819.78 123.66 820.23 110.27 826.44 102.19
  Z"
/>
<path fill="#0b133c" d="
  M 889.46 98.71
  C 895.08 94.88 903.90 94.87 909.41 99.16
  C 914.87 103.42 916.46 110.61 915.97 117.40
  Q 915.89 118.50 914.78 118.50
  L 891.52 118.50
  A 0.58 0.58 0.0 0 0 890.94 119.15
  C 892.56 132.52 906.30 129.95 914.08 124.55
  A 0.64 0.64 0.0 0 1 915.08 124.98
  L 916.05 131.27
  Q 916.14 131.85 915.65 132.18
  Q 905.15 139.09 893.44 135.84
  C 877.81 131.51 877.21 107.04 889.46 98.71
  Z
  M 892.03 112.04
  L 905.59 112.08
  A 0.80 0.80 0.0 0 0 906.40 111.29
  L 906.40 111.14
  A 8.33 7.52 -89.8 0 0 898.91 102.78
  L 898.79 102.78
  A 8.33 7.52 -89.8 0 0 891.24 111.08
  L 891.24 111.23
  A 0.80 0.80 0.0 0 0 892.03 112.04
  Z"
/>
<path fill="#0b133c" d="
  M 948.09 134.63
  Q 947.81 122.62 948.07 112.22
  C 948.35 101.43 939.16 103.78 934.79 109.39
  A 1.42 1.38 -27.0 0 0 934.50 110.24
  L 934.50 135.50
  Q 934.50 136.00 934.00 136.00
  L 925.25 136.00
  Q 924.50 136.00 924.50 135.25
  L 924.50 97.16
  A 0.65 0.65 0.0 0 1 925.15 96.51
  L 932.43 96.50
  A 0.79 0.78 -3.7 0 1 933.21 97.18
  L 933.74 101.00
  A 0.69 0.69 0.0 0 0 934.93 101.37
  C 942.49 93.30 958.01 93.09 957.99 107.62
  Q 957.96 121.48 958.06 135.33
  A 0.66 0.65 -0.4 0 1 957.40 135.99
  L 949.51 136.00
  Q 948.13 136.01 948.09 134.63
  Z"
/>
<path fill="#0b133c" d="
  M 971.69 101.69
  C 977.78 94.33 989.75 94.75 997.35 98.96
  A 0.78 0.78 0.0 0 1 997.75 99.76
  L 996.58 107.27
  A 0.72 0.72 0.0 0 1 995.44 107.74
  C 989.13 103.03 979.39 102.83 977.02 112.01
  C 973.72 124.80 984.85 133.26 995.93 124.92
  A 0.77 0.76 67.5 0 1 997.15 125.43
  L 998.04 131.99
  A 1.65 1.64 -18.6 0 1 997.21 133.66
  C 973.89 146.58 956.99 119.42 971.69 101.69
  Z"
/>
<path fill="#0b133c" d="
  M 1013.63 118.95
  C 1015.23 132.65 1029.14 130.01 1037.04 124.45
  A 0.50 0.50 0.0 0 1 1037.82 124.80
  L 1038.62 131.42
  Q 1038.69 132.02 1038.18 132.34
  C 1027.12 139.27 1009.60 139.06 1004.97 124.77
  C 1001.21 113.17 1005.56 97.69 1019.52 96.10
  C 1033.23 94.53 1039.83 105.46 1038.66 117.68
  A 0.90 0.90 0.0 0 1 1037.76 118.50
  L 1014.03 118.50
  Q 1013.58 118.50 1013.63 118.95
  Z
  M 1014.63 112.00
  L 1028.47 112.04
  A 0.60 0.60 0.0 0 0 1029.08 111.45
  L 1029.08 111.34
  A 8.47 7.52 -89.8 0 0 1021.59 102.84
  L 1021.59 102.84
  A 8.47 7.52 -89.8 0 0 1014.04 111.28
  L 1014.04 111.39
  A 0.60 0.60 0.0 0 0 1014.63 112.00
  Z"
/>
<path fill="#0b133c" d="
  M 1137.8432 137.0489
  A 20.70 18.80 90.6 0 1 1119.2610 116.1531
  A 20.70 18.80 90.6 0 1 1138.2768 95.6511
  A 20.70 18.80 90.6 0 1 1156.8590 116.5469
  A 20.70 18.80 90.6 0 1 1137.8432 137.0489
  Z
  M 1138.2916 128.7291
  A 12.41 8.93 89.3 0 0 1147.0693 116.2109
  A 12.41 8.93 89.3 0 0 1137.9884 103.9109
  A 12.41 8.93 89.3 0 0 1129.2107 116.4291
  A 12.41 8.93 89.3 0 0 1138.2916 128.7291
  Z"
/>
<path fill="#0b133c" d="
  M 1208.80 136.68
  C 1186.52 134.78 1186.75 95.95 1211.05 95.99
  C 1236.74 96.04 1236.04 138.99 1208.80 136.68
  Z
  M 1211.1884 128.7495
  A 12.42 8.91 89.5 0 0 1219.9897 116.2522
  A 12.42 8.91 89.5 0 0 1210.9716 103.9105
  A 12.42 8.91 89.5 0 0 1202.1703 116.4078
  A 12.42 8.91 89.5 0 0 1211.1884 128.7495
  Z"
/>
<path fill="#0b133c" d="
  M 1247.86 101.30
  C 1249.67 99.83 1251.23 98.13 1253.31 97.27
  C 1278.63 86.81 1282.86 136.87 1256.07 136.44
  Q 1254.25 136.41 1248.59 135.26
  Q 1248.00 135.14 1248.00 135.74
  L 1248.00 149.07
  A 0.62 0.61 -3.7 0 1 1247.46 149.68
  L 1238.61 150.87
  Q 1238.00 150.95 1238.00 150.34
  L 1238.00 97.37
  A 0.88 0.87 -0.0 0 1 1238.88 96.50
  L 1246.23 96.51
  A 0.57 0.56 87.8 0 1 1246.79 97.04
  L 1247.08 100.96
  A 0.48 0.48 0.0 0 0 1247.86 101.30
  Z
  M 1248.57 109.43
  A 2.49 2.47 -25.4 0 0 1248.00 111.01
  L 1248.00 125.75
  A 1.54 1.54 0.0 0 0 1249.05 127.21
  C 1273.78 135.55 1264.71 89.87 1248.57 109.43
  Z"
/>
<rect fill="#0b133c" x="862.25" y="96.51" width="10.00" height="39.50" rx="0.81"/>
<rect fill="#0b133c" x="1163.76" y="107.74" width="21.50" height="9.76" rx="0.89"/>
<path fill="#0077b3" d="
  M 1489.51 122.67
  Q 1490.19 134.78 1483.94 143.69
  Q 1475.91 155.12 1461.22 153.50
  L 1466.36 149.31
  Q 1481.97 146.63 1484.79 128.95
  L 1489.51 122.67
  Z"
/>
<path fill="#0077b3" d="
  M 1419.90 127.43
  L 1425.10 127.60
  Q 1437.47 140.75 1452.87 147.18
  Q 1450.97 149.44 1448.72 150.44
  Q 1432.39 142.63 1420.39 129.40
  Q 1420.26 129.26 1420.06 129.25
  Q 1419.92 129.25 1419.77 129.24
  L 1419.90 127.43
  Z"
/>
<rect fill="#0b133c" x="248.75" y="189.03" width="2.74" height="31.48" rx="1.05"/>
<rect fill="#0b133c" x="522.75" y="189.04" width="2.74" height="31.46" rx="0.99"/>
<circle fill="#0b133c" cx="577.00" cy="191.08" r="2.00"/>
<path fill="#0b133c" d="
  M 792.39 197.42
  C 806.14 189.63 807.35 214.31 795.97 212.93
  C 794.61 212.77 793.50 211.88 792.18 211.21
  A 0.51 0.51 0.0 0 0 791.49 211.46
  Q 790.70 213.16 788.89 212.98
  A 0.71 0.71 0.0 0 1 788.25 212.27
  L 788.25 189.92
  A 0.65 0.65 0.0 0 1 788.89 189.27
  L 790.93 189.24
  A 0.97 0.97 0.0 0 1 791.91 190.24
  L 791.69 196.99
  Q 791.66 197.83 792.39 197.42
  Z
  M 795.8283 210.3098
  A 5.93 4.23 90.5 0 0 800.1098 204.4169
  A 5.93 4.23 90.5 0 0 795.9317 198.4502
  A 5.93 4.23 90.5 0 0 791.6502 204.3431
  A 5.93 4.23 90.5 0 0 795.8283 210.3098
  Z"
/>
<rect fill="#0b133c" x="879.48" y="189.28" width="2.78" height="31.12" rx="0.82"/>
<circle fill="#0b133c" cx="1019.26" cy="191.07" r="1.99"/>
<path fill="#0b133c" d="
  M 1205.34 211.57
  L 1204.38 212.76
  A 1.34 1.33 -25.8 0 1 1202.00 211.93
  L 1202.00 190.00
  A 0.75 0.75 0.0 0 1 1202.75 189.25
  L 1205.17 189.25
  A 0.64 0.64 0.0 0 1 1205.81 189.93
  L 1205.45 197.25
  A 0.48 0.48 0.0 0 0 1206.26 197.61
  Q 1207.43 196.45 1209.29 196.23
  C 1223.25 194.59 1217.39 219.84 1206.50 211.43
  A 0.83 0.83 0.0 0 0 1205.34 211.57
  Z
  M 1209.6072 210.3094
  A 5.93 4.16 90.8 0 0 1213.8496 204.4381
  A 5.93 4.16 90.8 0 0 1209.7728 198.4506
  A 5.93 4.16 90.8 0 0 1205.5304 204.3219
  A 5.93 4.16 90.8 0 0 1209.6072 210.3094
  Z"
/>
<path fill="#0b133c" d="
  M 10.62 198.95
  Q 10.91 205.66 10.66 212.46
  A 0.56 0.56 0.0 0 1 10.10 212.99
  L 7.64 212.99
  Q 6.98 212.99 6.98 212.33
  L 7.04 194.24
  Q 7.04 192.78 5.59 192.96
  Q 3.36 193.24 1.15 192.75
  A 1.28 1.28 0.0 0 1 1.43 190.22
  L 16.62 190.24
  Q 17.25 190.24 17.25 190.87
  L 17.25 192.38
  Q 17.25 193.00 16.63 193.00
  L 11.47 193.00
  A 1.08 1.08 0.0 0 0 10.46 194.47
  C 11.05 196.01 10.56 197.72 10.62 198.95
  Z"
/>
<path fill="#0b133c" d="
  M 86.25 205.25
  L 87.99 205.25
  A 0.71 0.70 1.5 0 1 88.70 205.99
  L 88.61 207.49
  Q 88.58 208.06 88.01 208.09
  L 85.94 208.23
  A 0.58 0.58 0.0 0 0 85.42 208.98
  Q 85.95 210.70 85.78 211.82
  A 1.78 1.77 -40.6 0 1 82.25 211.55
  L 82.25 208.82
  Q 82.25 208.27 81.71 208.23
  Q 78.08 207.93 74.52 208.29
  Q 72.81 208.47 72.33 207.96
  A 2.30 2.19 -50.4 0 1 72.14 205.15
  L 81.99 190.48
  Q 82.25 190.08 82.73 190.12
  L 85.05 190.31
  Q 85.75 190.36 85.75 191.06
  L 85.75 204.75
  Q 85.75 205.25 86.25 205.25
  Z
  M 82.38 195.53
  A 0.33 0.33 0.0 0 0 81.77 195.35
  L 75.54 204.73
  A 0.33 0.33 0.0 0 0 75.81 205.24
  L 81.86 205.26
  A 0.33 0.33 0.0 0 0 82.19 204.94
  L 82.38 195.53
  Z"
/>
<path fill="#0b133c" d="
  M 208.89 193.00
  L 198.84 193.00
  Q 198.23 193.00 198.09 192.41
  L 197.74 190.90
  Q 197.57 190.20 198.29 190.21
  L 212.25 190.27
  A 1.48 1.48 0.0 0 1 213.61 192.33
  Q 209.91 201.01 206.17 209.42
  C 204.99 212.07 204.71 213.91 201.44 212.81
  A 0.46 0.45 21.2 0 1 201.16 212.19
  L 209.33 193.69
  A 0.49 0.49 0.0 0 0 208.89 193.00
  Z"
/>
<path fill="#0b133c" d="
  M 40.96 200.44
  L 42.55 199.30
  A 1.96 1.94 21.6 0 1 43.30 198.98
  C 57.29 196.27 52.31 218.71 40.66 211.96
  C 36.10 209.32 36.00 201.98 37.27 197.63
  C 39.02 191.64 43.74 189.19 49.77 190.51
  Q 50.27 190.62 50.26 191.13
  L 50.23 192.59
  Q 50.22 193.22 49.59 193.12
  Q 41.14 191.76 40.25 200.03
  A 0.45 0.45 0.0 0 0 40.96 200.44
  Z
  M 44.9795 210.1120
  A 4.44 4.01 82.5 0 0 48.3757 205.1866
  A 4.44 4.01 82.5 0 0 43.8205 201.3080
  A 4.44 4.01 82.5 0 0 40.4243 206.2334
  A 4.44 4.01 82.5 0 0 44.9795 210.1120
  Z"
/>
<path fill="#0b133c" d="
  M 55.20 195.97
  C 57.39 187.82 67.68 188.21 69.31 196.51
  C 70.21 201.04 70.35 208.72 66.13 211.75
  C 61.98 214.73 56.99 212.39 55.54 207.67
  Q 53.69 201.63 55.20 195.97
  Z
  M 62.2100 210.4300
  A 8.86 4.14 90.0 0 0 66.3500 201.5700
  A 8.86 4.14 90.0 0 0 62.2100 192.7100
  A 8.86 4.14 90.0 0 0 58.0700 201.5700
  A 8.86 4.14 90.0 0 0 62.2100 210.4300
  Z"
/>
<path fill="#0b133c" d="
  M 102.95 200.61
  C 102.25 199.77 101.19 199.06 100.75 198.10
  C 97.09 190.07 109.75 187.51 112.95 193.14
  Q 115.17 197.05 110.50 200.67
  A 0.58 0.57 -51.7 0 0 110.61 201.64
  C 115.33 203.85 116.05 209.55 111.18 212.00
  C 106.24 214.48 96.43 212.03 100.04 204.45
  C 100.62 203.23 102.01 202.50 102.95 201.40
  Q 103.28 201.00 102.95 200.61
  Z
  M 110.21 196.03
  A 3.26 3.26 0.0 0 0 106.95 192.77
  A 3.26 3.26 0.0 0 0 103.69 196.03
  A 3.26 3.26 0.0 0 0 106.95 199.29
  A 3.26 3.26 0.0 0 0 110.21 196.03
  Z
  M 110.9046 207.1737
  A 4.07 3.60 6.4 0 0 107.2613 203.1424
  A 4.07 3.60 6.4 0 0 102.8154 206.2663
  A 4.07 3.60 6.4 0 0 106.4587 210.2976
  A 4.07 3.60 6.4 0 0 110.9046 207.1737
  Z"
/>
<path fill="#0b133c" d="
  M 122.39 209.25
  A 0.60 0.60 0.0 0 0 122.79 210.31
  L 132.03 210.11
  Q 132.51 210.10 132.50 210.59
  L 132.45 212.32
  Q 132.42 213.00 131.75 213.00
  L 118.76 213.00
  A 1.55 1.55 0.0 0 1 117.64 210.39
  C 120.88 206.98 129.22 199.93 127.98 194.86
  A 1.29 1.29 0.0 0 0 127.49 194.12
  C 124.29 191.71 122.27 193.49 119.65 194.93
  Q 118.97 195.30 118.64 194.60
  L 117.99 193.22
  Q 117.70 192.59 118.28 192.21
  C 126.49 186.89 136.92 193.39 129.31 202.36
  Q 126.12 206.11 122.39 209.25
  Z"
/>
<path fill="#0b133c" d="
  M 140.78 208.95
  A 0.78 0.77 -66.1 0 0 141.30 210.31
  L 149.83 210.11
  Q 150.18 210.10 150.39 210.38
  Q 151.16 211.38 150.46 212.57
  Q 150.21 213.00 149.72 213.00
  L 136.74 213.00
  A 1.49 1.49 0.0 0 1 135.66 210.48
  C 138.07 207.94 150.45 197.13 144.72 193.48
  C 142.48 192.06 140.10 193.44 137.80 194.92
  A 0.72 0.72 0.0 0 1 136.78 194.66
  L 135.98 193.21
  Q 135.72 192.73 136.17 192.40
  C 140.40 189.35 149.22 188.70 149.80 195.75
  C 150.21 200.83 144.32 205.87 140.78 208.95
  Z"
/>
<path fill="#0b133c" d="
  M 173.75 202.86
  A 0.43 0.43 0.0 0 0 173.07 202.47
  Q 169.12 205.41 165.65 203.70
  C 157.87 199.86 163.57 186.89 172.53 190.75
  C 177.24 192.78 177.72 198.88 177.02 203.56
  C 176.03 210.21 171.46 213.85 164.45 212.87
  Q 163.87 212.79 163.77 212.22
  L 163.46 210.57
  Q 163.30 209.71 164.15 209.87
  Q 172.84 211.43 173.75 202.86
  Z
  M 170.0951 201.6189
  A 4.33 4.02 82.1 0 0 173.4818 196.7775
  A 4.33 4.02 82.1 0 0 168.9049 193.0411
  A 4.33 4.02 82.1 0 0 165.5182 197.8825
  A 4.33 4.02 82.1 0 0 170.0951 201.6189
  Z"
/>
<path fill="#0b133c" d="
  M 184.35 200.56
  C 190.76 195.27 197.80 201.79 194.83 208.84
  C 192.82 213.61 186.48 214.21 183.00 210.89
  C 179.93 207.97 179.77 201.83 180.87 197.90
  Q 183.44 188.74 193.29 190.48
  Q 193.85 190.58 193.88 191.15
  L 193.95 192.28
  A 0.78 0.77 -87.6 0 1 193.07 193.09
  Q 184.52 191.91 183.77 200.25
  Q 183.70 201.09 184.35 200.56
  Z
  M 188.2108 210.1040
  A 4.41 3.97 87.0 0 0 191.9446 205.4922
  A 4.41 3.97 87.0 0 0 187.7492 201.2960
  A 4.41 3.97 87.0 0 0 184.0154 205.9078
  A 4.41 3.97 87.0 0 0 188.2108 210.1040
  Z"
/>
<path fill="#0b133c" d="
  M 227.43 193.68
  A 0.48 0.48 0.0 0 0 226.99 193.00
  L 216.80 193.00
  Q 216.04 193.00 216.02 192.24
  L 215.99 190.89
  Q 215.98 190.25 216.62 190.25
  L 230.49 190.25
  Q 232.47 190.25 231.70 192.07
  Q 227.56 201.99 223.40 211.43
  Q 222.24 214.08 219.53 212.74
  Q 219.07 212.52 219.28 212.05
  L 227.43 193.68
  Z"
/>
<path fill="#0b133c" d="
  M 273.84 193.61
  L 273.94 199.98
  A 0.60 0.60 0.0 0 0 274.55 200.57
  L 281.88 200.47
  A 0.60 0.60 0.0 0 1 282.49 201.07
  L 282.49 202.82
  A 0.60 0.60 0.0 0 1 281.87 203.42
  L 274.59 203.20
  A 0.60 0.60 0.0 0 0 273.97 203.80
  L 273.98 212.40
  A 0.60 0.60 0.0 0 1 273.38 213.00
  L 270.85 213.00
  A 0.60 0.60 0.0 0 1 270.25 212.40
  L 270.25 190.85
  A 0.60 0.60 0.0 0 1 270.85 190.25
  L 282.41 190.25
  A 0.60 0.60 0.0 0 1 283.01 190.86
  L 282.97 192.41
  A 0.60 0.60 0.0 0 1 282.37 193.00
  L 274.44 193.00
  A 0.60 0.60 0.0 0 0 273.84 193.61
  Z"
/>
<path fill="#0b133c" d="
  M 306.77 200.51
  Q 307.90 200.27 308.70 199.43
  A 1.11 1.07 13.4 0 1 309.21 199.13
  Q 316.03 197.31 317.87 203.15
  C 320.86 212.64 307.41 217.11 303.94 208.17
  C 300.51 199.35 304.85 188.25 316.36 190.56
  Q 316.89 190.67 316.79 191.20
  L 316.54 192.54
  Q 316.43 193.17 315.79 193.09
  Q 307.43 191.96 306.33 200.10
  Q 306.26 200.62 306.77 200.51
  Z
  M 311.1492 210.0569
  A 4.37 4.09 84.1 0 0 314.7683 205.2896
  A 4.37 4.09 84.1 0 0 310.2508 201.3631
  A 4.37 4.09 84.1 0 0 306.6317 206.1304
  A 4.37 4.09 84.1 0 0 311.1492 210.0569
  Z"
/>
<path fill="#0b133c" d="
  M 327.91 213.00
  C 319.33 212.39 319.00 194.23 324.40 191.53
  C 339.28 184.10 340.22 213.87 327.91 213.00
  Z
  M 328.5455 210.4200
  A 8.87 4.21 89.9 0 0 332.7400 201.5427
  A 8.87 4.21 89.9 0 0 328.5145 192.6800
  A 8.87 4.21 89.9 0 0 324.3200 201.5573
  A 8.87 4.21 89.9 0 0 328.5455 210.4200
  Z"
/>
<path fill="#0b133c" d="
  M 347.19 192.19
  Q 349.06 189.56 351.65 190.30
  Q 352.22 190.46 352.19 191.05
  Q 351.84 197.84 352.19 204.50
  Q 352.25 205.72 353.79 205.15
  A 1.12 1.12 0.0 0 1 355.28 206.01
  Q 355.46 207.06 354.75 207.62
  Q 354.36 207.94 353.85 207.97
  L 352.71 208.03
  A 0.79 0.79 0.0 0 0 351.96 208.85
  L 352.09 212.36
  Q 352.11 212.87 351.60 212.90
  L 349.12 213.03
  Q 348.34 213.06 348.43 212.29
  L 348.73 209.31
  A 0.92 0.92 0.0 0 0 348.32 208.44
  Q 347.01 207.61 345.44 208.17
  A 0.48 0.42 35.0 0 1 345.25 208.19
  L 338.92 207.93
  A 1.10 1.10 0.0 0 1 338.01 206.27
  Q 342.23 199.15 347.19 192.19
  Z
  M 348.59 195.82
  A 0.44 0.44 0.0 0 0 347.78 195.58
  L 341.98 204.56
  A 0.44 0.44 0.0 0 0 342.35 205.24
  L 348.02 205.26
  A 0.44 0.44 0.0 0 0 348.46 204.83
  L 348.59 195.82
  Z"
/>
<path fill="#0b133c" d="
  M 369.21 200.42
  Q 367.14 199.14 366.55 196.89
  C 363.68 186.07 387.13 189.66 378.46 199.39
  Q 378.16 199.73 377.73 199.87
  Q 376.81 200.16 376.74 201.10
  Q 376.70 201.56 377.12 201.77
  C 386.34 206.27 377.67 215.83 368.96 211.98
  C 363.97 209.77 364.92 204.01 369.17 201.73
  A 0.76 0.75 47.0 0 0 369.21 200.42
  Z
  M 376.60 196.02
  A 3.31 3.31 0.0 0 0 373.29 192.71
  A 3.31 3.31 0.0 0 0 369.98 196.02
  A 3.31 3.31 0.0 0 0 373.29 199.33
  A 3.31 3.31 0.0 0 0 376.60 196.02
  Z
  M 377.2862 207.2760
  A 4.08 3.58 8.4 0 0 373.7730 203.1384
  A 4.08 3.58 8.4 0 0 369.2138 206.0840
  A 4.08 3.58 8.4 0 0 372.7270 210.2216
  A 4.08 3.58 8.4 0 0 377.2862 207.2760
  Z"
/>
<path fill="#0b133c" d="
  M 388.88 209.12
  A 0.67 0.67 0.0 0 0 389.34 210.30
  L 397.98 210.12
  Q 398.76 210.10 398.84 210.88
  L 398.98 212.23
  A 0.71 0.70 87.4 0 1 398.28 213.00
  L 385.00 213.00
  A 1.55 1.54 -67.5 0 1 383.91 210.36
  C 387.34 206.90 395.53 200.11 394.30 194.76
  A 1.43 1.42 8.0 0 0 393.58 193.81
  Q 389.82 191.84 386.62 194.64
  A 0.79 0.76 -60.5 0 1 385.98 194.83
  Q 384.53 194.58 384.31 192.99
  Q 384.25 192.55 384.61 192.29
  C 387.91 189.95 395.33 188.65 397.50 193.45
  C 400.24 199.52 392.86 205.61 388.88 209.12
  Z"
/>
<path fill="#0b133c" d="
  M 402.06 210.23
  C 404.97 207.22 415.02 199.02 411.82 194.01
  Q 411.54 193.58 411.06 193.41
  Q 407.54 192.16 404.77 194.64
  A 1.23 1.23 0.0 0 1 402.76 194.06
  L 402.48 193.04
  Q 402.34 192.53 402.77 192.22
  C 406.84 189.39 413.96 188.86 415.96 194.45
  C 417.86 199.74 410.48 206.13 406.86 209.11
  A 0.67 0.67 0.0 0 0 407.29 210.30
  L 416.29 210.14
  Q 417.00 210.13 417.00 210.85
  L 417.00 212.25
  A 0.75 0.75 0.0 0 1 416.25 213.00
  L 403.23 213.00
  A 1.63 1.63 0.0 0 1 402.06 210.23
  Z"
/>
<path fill="#0b133c" d="
  M 439.69 202.59
  C 438.30 203.07 437.15 204.08 435.73 204.22
  C 425.13 205.28 426.31 188.11 437.52 190.43
  C 447.40 192.47 446.01 215.04 430.56 212.85
  Q 430.00 212.77 430.00 212.20
  L 430.00 210.50
  Q 430.00 209.89 430.60 209.98
  Q 439.02 211.25 440.16 202.97
  Q 440.24 202.40 439.69 202.59
  Z
  M 436.3051 201.6139
  A 4.33 3.98 83.7 0 0 439.7860 196.8733
  A 4.33 3.98 83.7 0 0 435.3549 193.0061
  A 4.33 3.98 83.7 0 0 431.8740 197.7467
  A 4.33 3.98 83.7 0 0 436.3051 201.6139
  Z"
/>
<path fill="#0b133c" d="
  M 450.70 200.47
  C 466.13 191.83 464.34 218.62 451.05 212.21
  C 446.32 209.92 446.23 203.16 447.11 198.63
  C 448.38 192.13 453.24 189.13 459.79 190.49
  Q 460.27 190.59 460.26 191.07
  L 460.23 192.61
  A 0.50 0.50 0.0 0 1 459.65 193.10
  Q 451.12 191.82 450.10 200.07
  Q 450.00 200.86 450.70 200.47
  Z
  M 454.6439 210.1327
  A 4.41 4.00 86.7 0 0 458.3834 205.4997
  A 4.41 4.00 86.7 0 0 454.1361 201.3273
  A 4.41 4.00 86.7 0 0 450.3966 205.9603
  A 4.41 4.00 86.7 0 0 454.6439 210.1327
  Z"
/>
<path fill="#0b133c" d="
  M 475.24 193.00
  L 464.84 193.00
  Q 464.36 193.00 464.28 192.53
  L 464.00 190.97
  Q 463.87 190.25 464.60 190.25
  L 478.77 190.25
  A 1.31 1.31 0.0 0 1 479.98 192.07
  Q 475.87 201.82 471.85 211.11
  C 470.99 213.09 469.73 213.65 467.76 212.83
  Q 467.30 212.65 467.50 212.20
  L 475.71 193.72
  Q 476.03 193.00 475.24 193.00
  Z"
/>
<path fill="#0b133c" d="
  M 486.29 199.97
  Q 486.19 200.89 486.96 200.39
  C 491.43 197.50 496.32 198.16 497.72 203.60
  C 500.15 213.10 486.74 216.98 483.53 207.63
  C 480.57 198.98 484.88 188.35 495.97 190.53
  A 0.63 0.62 -81.1 0 1 496.47 191.22
  L 496.31 192.56
  A 0.63 0.63 0.0 0 1 495.60 193.11
  Q 487.19 191.94 486.29 199.97
  Z
  M 494.73 205.72
  A 4.22 4.22 0.0 0 0 490.51 201.50
  A 4.22 4.22 0.0 0 0 486.29 205.72
  A 4.22 4.22 0.0 0 0 490.51 209.94
  A 4.22 4.22 0.0 0 0 494.73 205.72
  Z"
/>
<path fill="#0b133c" d="
  M 757.08 206.06
  A 1.62 1.62 0.0 0 0 759.97 205.81
  C 765.96 190.65 743.37 186.91 741.69 202.69
  C 740.62 212.73 749.41 215.24 757.20 212.25
  A 0.53 0.52 -20.3 0 1 757.88 212.56
  Q 758.49 214.17 757.00 214.77
  C 744.40 219.80 733.85 207.99 740.93 196.33
  C 747.61 185.32 766.21 189.35 763.18 204.25
  Q 762.21 209.02 757.43 209.11
  Q 757.00 209.12 756.69 208.81
  L 755.20 207.32
  A 0.63 0.63 0.0 0 0 754.37 207.27
  C 743.91 215.27 739.07 192.71 756.17 196.42
  A 1.11 1.11 0.0 0 1 757.04 197.56
  Q 756.86 200.79 756.74 204.25
  Q 756.70 205.42 757.08 206.06
  Z
  M 749.8603 206.7894
  A 4.54 3.05 104.8 0 0 753.9688 203.1791
  A 4.54 3.05 104.8 0 0 752.1797 198.0106
  A 4.54 3.05 104.8 0 0 748.0712 201.6209
  A 4.54 3.05 104.8 0 0 749.8603 206.7894
  Z"
/>
<circle fill="#0b133c" cx="22.42" cy="198.17" r="2.39"/>
<circle fill="#0b133c" cx="288.69" cy="198.18" r="2.40"/>
<path fill="#0b133c" d="
  M 613.98 202.01
  C 613.96 197.90 608.70 197.70 607.19 200.26
  C 605.83 202.57 606.49 209.48 606.50 212.33
  Q 606.51 213.06 605.78 213.02
  L 603.42 212.90
  A 0.71 0.70 -88.7 0 1 602.75 212.19
  L 602.75 196.99
  A 1.54 1.54 0.0 0 1 605.81 196.71
  Q 605.87 197.08 606.07 197.41
  Q 606.40 197.95 606.90 197.56
  C 610.24 194.98 616.85 194.84 617.43 200.38
  Q 618.06 206.35 617.64 212.38
  Q 617.59 213.01 616.95 213.01
  L 614.64 212.98
  A 0.64 0.64 0.0 0 1 614.00 212.34
  Q 614.00 207.13 613.98 202.01
  Z"
/>
<path fill="#0b133c" d="
  M 723.88 197.47
  C 740.12 188.81 737.54 220.97 723.78 211.22
  A 0.34 0.34 0.0 0 0 723.24 211.51
  L 723.58 219.13
  A 1.36 1.35 -88.5 0 1 722.10 220.54
  L 720.40 220.37
  Q 719.75 220.31 719.75 219.66
  L 719.75 196.93
  A 1.39 1.39 0.0 0 1 722.26 196.10
  L 723.16 197.31
  Q 723.45 197.70 723.88 197.47
  Z
  M 727.3487 210.2599
  A 5.91 4.16 90.4 0 0 731.5499 204.3790
  A 5.91 4.16 90.4 0 0 727.4313 198.4401
  A 5.91 4.16 90.4 0 0 723.2301 204.3210
  A 5.91 4.16 90.4 0 0 727.3487 210.2599
  Z"
/>
<path fill="#0b133c" d="
  M 768.52 209.05
  C 767.63 204.89 768.70 200.93 767.94 196.83
  Q 767.83 196.21 768.45 196.12
  L 770.87 195.75
  Q 771.72 195.62 771.73 196.49
  C 771.75 199.66 771.01 206.79 772.64 209.34
  Q 772.93 209.79 773.45 209.93
  C 781.45 211.98 779.52 200.59 779.49 196.52
  A 0.68 0.67 -88.0 0 1 780.21 195.84
  L 782.50 196.02
  A 0.61 0.60 2.5 0 1 783.07 196.63
  L 783.01 212.02
  Q 783.01 212.36 782.78 212.61
  Q 781.87 213.54 780.73 212.87
  A 1.20 1.20 0.0 0 1 780.20 212.21
  L 779.87 211.24
  A 0.53 0.52 -31.0 0 0 779.01 211.03
  C 776.01 213.82 769.57 213.97 768.52 209.05
  Z"
/>
<path fill="#0b133c" d="
  M 904.65 208.25
  A 0.18 0.18 0.0 0 0 905.00 208.28
  Q 906.92 203.04 908.12 197.51
  A 2.66 2.65 -45.9 0 1 913.29 197.43
  L 915.83 207.60
  A 0.57 0.57 0.0 0 0 916.94 207.55
  Q 917.69 202.54 919.29 197.24
  Q 920.04 194.75 922.55 196.29
  Q 922.87 196.49 922.77 196.86
  L 918.95 211.49
  A 2.59 2.58 45.3 0 1 913.94 211.46
  L 911.10 200.07
  A 0.34 0.34 0.0 0 0 910.44 200.07
  L 907.44 211.45
  A 2.54 2.54 0.0 0 1 902.53 211.47
  L 898.50 196.63
  A 0.64 0.64 0.0 0 1 899.15 195.82
  L 901.45 195.96
  Q 902.08 196.00 902.20 196.61
  L 904.65 208.25
  Z"
/>
<path fill="#0b133c" d="
  M 941.48 207.77
  A 0.40 0.39 46.2 0 0 942.25 207.79
  L 945.06 196.58
  Q 945.23 195.90 945.93 195.88
  L 947.89 195.83
  Q 948.77 195.80 948.54 196.65
  L 944.54 211.55
  A 2.54 2.54 0.0 0 1 939.62 211.49
  L 936.86 200.30
  A 0.40 0.40 0.0 0 0 936.08 200.30
  L 933.26 211.30
  A 2.64 2.64 0.0 0 1 928.15 211.34
  Q 926.44 205.05 924.47 197.76
  Q 924.36 197.34 923.62 196.78
  Q 922.98 196.30 923.77 196.20
  L 926.76 195.79
  A 0.93 0.93 0.0 0 1 927.79 196.50
  L 930.47 208.19
  A 0.28 0.28 0.0 0 0 931.02 208.20
  L 934.06 197.28
  A 2.12 2.12 0.0 0 1 935.99 195.73
  Q 938.49 195.58 938.99 197.50
  Q 940.37 202.72 941.48 207.77
  Z"
/>
<path fill="#0b133c" d="
  M 967.29 207.97
  A 0.27 0.27 0.0 0 0 967.81 207.97
  L 970.87 196.55
  Q 971.04 195.90 971.72 195.89
  L 973.97 195.87
  Q 974.65 195.86 974.47 196.51
  L 970.25 211.55
  A 2.55 2.54 -44.7 0 1 965.34 211.53
  L 962.34 200.32
  A 0.41 0.40 -47.0 0 0 961.55 200.35
  Q 960.46 205.89 958.76 211.50
  Q 958.44 212.57 957.75 212.86
  C 956.63 213.33 954.24 213.12 953.94 211.78
  Q 952.19 204.17 949.85 196.75
  Q 949.72 196.36 950.08 196.16
  C 952.43 194.83 953.54 196.28 954.05 198.46
  Q 955.16 203.32 956.29 207.99
  A 0.31 0.31 0.0 0 0 956.90 207.99
  L 959.64 197.29
  A 2.54 2.54 0.0 0 1 964.56 197.29
  L 967.29 207.97
  Z"
/>
<path fill="#0b133c" d="
  M 1045.01 197.20
  A 1.51 1.50 30.4 0 1 1047.88 196.46
  L 1048.31 197.41
  A 0.61 0.61 0.0 0 0 1049.23 197.64
  C 1052.83 194.85 1059.39 195.07 1059.71 200.82
  Q 1060.03 206.56 1060.03 212.30
  A 0.68 0.68 0.0 0 1 1059.36 212.98
  L 1057.06 213.01
  Q 1056.51 213.01 1056.51 212.47
  Q 1056.50 207.21 1056.43 202.02
  C 1056.38 197.83 1051.17 197.77 1049.49 200.54
  C 1048.10 202.86 1048.73 209.40 1048.77 212.20
  A 0.80 0.80 0.0 0 1 1047.96 213.01
  L 1045.66 212.98
  A 0.73 0.73 0.0 0 1 1044.94 212.18
  Q 1045.62 204.73 1045.01 197.20
  Z"
/>
<path fill="#0b133c" d="
  M 1157.36 197.68
  C 1158.54 197.12 1159.47 196.33 1160.70 196.08
  C 1171.66 193.87 1171.76 213.80 1161.54 212.92
  C 1160.09 212.79 1158.75 211.94 1157.33 211.31
  Q 1156.73 211.04 1156.79 211.70
  C 1156.99 214.07 1158.72 220.59 1155.01 220.57
  A 1.53 1.52 -89.6 0 1 1153.50 219.03
  L 1153.59 196.96
  A 1.36 1.36 0.0 0 1 1155.79 195.90
  Q 1156.45 196.43 1156.68 197.35
  Q 1156.82 197.93 1157.36 197.68
  Z
  M 1161.1092 210.2399
  A 5.89 4.25 90.3 0 0 1165.3899 204.3723
  A 5.89 4.25 90.3 0 0 1161.1708 198.4601
  A 5.89 4.25 90.3 0 0 1156.8901 204.3277
  A 5.89 4.25 90.3 0 0 1161.1092 210.2399
  Z"
/>
<path fill="#0b133c" d="
  M 1182.40 196.11
  Q 1183.90 195.38 1185.28 196.13
  A 0.88 0.87 -73.7 0 1 1185.74 196.98
  C 1185.28 201.63 1184.20 210.67 1189.42 210.10
  C 1194.57 209.54 1193.67 200.16 1193.21 196.68
  Q 1193.12 195.99 1193.82 195.99
  L 1196.19 196.02
  Q 1196.74 196.02 1196.74 196.57
  L 1196.87 211.55
  A 1.50 1.49 28.6 0 1 1194.11 212.36
  L 1193.42 211.26
  Q 1193.07 210.71 1192.59 211.14
  C 1188.78 214.48 1182.17 213.33 1182.06 207.38
  Q 1181.96 202.15 1181.89 196.92
  Q 1181.88 196.35 1182.40 196.11
  Z"
/>
<path fill="#0b133c" d="
  M 543.19 198.44
  C 544.80 195.05 551.50 195.63 554.25 196.99
  A 0.71 0.70 16.3 0 1 554.65 197.71
  Q 554.49 199.15 553.47 199.43
  C 551.68 199.92 549.87 197.86 547.25 198.90
  A 1.51 1.50 -46.0 0 0 547.30 201.72
  C 550.58 202.88 555.83 204.38 555.10 208.87
  C 554.29 213.89 542.98 214.62 542.52 210.09
  A 0.96 0.96 0.0 0 1 543.88 209.13
  C 545.60 209.94 549.92 211.18 551.36 208.99
  A 1.67 1.67 0.0 0 0 550.63 206.55
  C 547.50 205.19 540.83 203.39 543.19 198.44
  Z"
/>
<path fill="#0b133c" d="
  M 568.02 213.20
  C 553.97 213.68 556.80 190.88 571.40 196.67
  Q 572.22 197.00 571.73 197.73
  L 570.76 199.17
  A 0.75 0.74 -60.2 0 1 569.83 199.43
  C 559.26 194.35 561.00 215.46 570.43 209.22
  A 1.03 1.03 0.0 0 1 571.88 210.60
  Q 570.37 213.13 568.02 213.20
  Z"
/>
<rect fill="#0b133c" x="575.19" y="196.01" width="3.56" height="16.94" rx="0.74"/>
<path fill="#0b133c" d="
  M 587.58 205.88
  C 587.56 210.40 593.30 210.92 596.28 209.32
  A 1.12 1.11 81.5 0 1 597.90 210.52
  C 597.30 213.64 591.73 213.19 589.68 212.64
  C 579.61 209.96 583.03 193.16 593.44 196.09
  Q 598.51 197.52 598.79 203.69
  A 1.49 1.49 0.0 0 1 597.30 205.25
  L 588.21 205.25
  Q 587.59 205.25 587.58 205.88
  Z
  M 587.77 202.55
  L 595.03 202.49
  A 0.24 0.24 0.0 0 0 595.27 202.25
  L 595.26 202.14
  A 3.70 3.65 -0.5 0 0 591.53 198.52
  L 591.19 198.52
  A 3.70 3.65 -0.5 0 0 587.52 202.20
  L 587.53 202.31
  A 0.24 0.24 0.0 0 0 587.77 202.55
  Z"
/>
<path fill="#0b133c" d="
  M 632.45 199.30
  C 623.52 194.68 622.25 214.32 633.17 209.31
  A 0.93 0.93 0.0 0 1 634.49 210.18
  C 634.33 215.87 619.30 213.63 622.02 202.02
  C 623.35 196.35 628.35 194.89 633.57 196.41
  Q 634.10 196.56 634.23 197.10
  Q 634.60 198.58 633.36 199.28
  A 0.95 0.94 -46.2 0 1 632.45 199.30
  Z"
/>
<path fill="#0b133c" d="
  M 640.63 205.95
  C 641.47 210.73 646.38 210.53 650.10 209.38
  A 1.10 1.10 0.0 0 1 651.18 211.23
  Q 649.73 212.61 647.87 212.91
  C 635.36 214.90 633.05 198.20 642.91 196.18
  C 648.71 194.98 651.88 198.36 652.07 204.02
  A 1.18 1.18 0.0 0 1 650.89 205.24
  L 641.21 205.25
  A 0.59 0.59 0.0 0 0 640.63 205.95
  Z
  M 641.23 202.49
  L 648.19 202.55
  A 0.27 0.27 0.0 0 0 648.47 202.28
  L 648.47 202.14
  A 3.59 3.53 0.5 0 0 644.91 198.58
  L 644.59 198.58
  A 3.59 3.53 0.5 0 0 640.97 202.08
  L 640.97 202.22
  A 0.27 0.27 0.0 0 0 641.23 202.49
  Z"
/>
<path fill="#0b133c" d="
  M 665.94 199.19
  Q 669.67 193.74 676.92 196.88
  Q 677.44 197.10 677.23 197.62
  L 676.62 199.09
  A 0.67 0.67 0.0 0 1 675.68 199.43
  C 665.51 193.98 665.73 215.17 676.11 209.27
  Q 676.60 208.99 676.91 209.47
  C 677.77 210.81 677.05 212.09 675.61 212.53
  Q 670.14 214.22 666.79 210.72
  C 664.10 207.91 663.82 202.29 665.94 199.19
  Z"
/>
<path fill="#0b133c" d="
  M 688.1975 213.0304
  A 8.65 8.13 87.3 0 1 679.6690 204.7730
  A 8.65 8.13 87.3 0 1 687.3825 195.7496
  A 8.65 8.13 87.3 0 1 695.9110 204.0070
  A 8.65 8.13 87.3 0 1 688.1975 213.0304
  Z
  M 687.7495 210.2300
  A 5.86 4.39 90.2 0 0 692.1600 204.3853
  A 5.86 4.39 90.2 0 0 687.7905 198.5100
  A 5.86 4.39 90.2 0 0 683.3800 204.3547
  A 5.86 4.39 90.2 0 0 687.7495 210.2300
  Z"
/>
<path fill="#0b133c" d="
  M 708.1428 213.0411
  A 8.66 8.12 87.4 0 1 699.6384 204.7583
  A 8.66 8.12 87.4 0 1 707.3572 195.7389
  A 8.66 8.12 87.4 0 1 715.8616 204.0217
  A 8.66 8.12 87.4 0 1 708.1428 213.0411
  Z
  M 707.7193 210.2299
  A 5.86 4.41 90.3 0 0 712.1599 204.3931
  A 5.86 4.41 90.3 0 0 707.7807 198.5101
  A 5.86 4.41 90.3 0 0 703.3401 204.3469
  A 5.86 4.41 90.3 0 0 707.7193 210.2299
  Z"
/>
<path fill="#0b133c" d="
  M 816.47 198.75
  C 807.93 196.62 809.25 215.01 818.99 209.22
  A 0.68 0.67 73.6 0 1 820.01 209.78
  C 820.16 214.31 813.22 213.23 810.97 211.95
  C 802.79 207.29 808.21 191.85 819.24 196.58
  A 1.38 1.38 0.0 0 1 818.40 199.20
  Q 817.45 198.99 816.47 198.75
  Z"
/>
<path fill="#0b133c" d="
  M 840.77 213.08
  C 826.02 214.55 828.53 191.06 843.26 196.61
  Q 843.73 196.79 843.76 197.29
  Q 843.83 198.56 842.70 199.18
  A 0.95 0.94 -46.7 0 1 841.85 199.21
  C 832.39 194.97 831.82 213.77 842.26 209.45
  A 1.02 1.02 0.0 0 1 843.67 210.46
  Q 843.53 212.80 840.77 213.08
  Z"
/>
<path fill="#0b133c" d="
  M 857.42 210.91
  C 847.95 219.72 840.21 200.69 856.70 202.55
  A 1.16 1.16 0.0 0 0 857.97 201.17
  C 857.22 197.45 853.06 198.56 850.33 199.75
  A 0.63 0.63 0.0 0 1 849.48 199.37
  L 848.94 197.77
  Q 848.73 197.15 849.34 196.91
  Q 851.89 195.94 855.50 196.00
  C 863.78 196.12 861.57 206.93 861.47 212.29
  Q 861.46 212.96 860.80 212.98
  L 859.54 213.01
  Q 859.01 213.02 858.82 212.52
  L 858.29 211.11
  Q 858.01 210.36 857.42 210.91
  Z
  M 851.58 205.59
  A 2.33 2.32 -35.3 0 0 851.00 208.94
  C 853.76 212.56 858.20 208.72 857.74 204.91
  Q 857.68 204.41 857.18 204.34
  Q 854.09 203.94 851.58 205.59
  Z"
/>
<path fill="#0b133c" d="
  M 986.72 198.20
  C 988.49 194.99 994.73 195.81 997.49 196.73
  A 0.90 0.90 0.0 0 1 997.99 198.02
  L 997.32 199.19
  Q 997.02 199.73 996.43 199.51
  Q 993.55 198.41 990.45 198.85
  A 1.37 1.36 52.9 0 0 990.09 201.45
  C 993.57 203.00 1000.16 204.45 998.20 209.68
  C 996.38 214.54 984.03 213.85 985.85 209.43
  A 0.81 0.81 0.0 0 1 986.96 209.02
  Q 990.19 210.64 993.72 209.94
  A 1.72 1.71 52.1 0 0 994.12 206.71
  C 990.83 205.13 983.77 203.58 986.72 198.20
  Z"
/>
<path fill="#0b133c" d="
  M 1010.42 198.75
  C 1001.92 196.55 1003.73 215.18 1012.71 209.29
  A 1.04 1.04 0.0 0 1 1014.22 210.60
  Q 1013.26 212.64 1011.61 212.93
  C 997.88 215.34 996.60 192.82 1013.29 196.32
  A 1.04 1.04 0.0 0 1 1014.00 197.82
  L 1013.46 198.83
  Q 1013.16 199.39 1012.53 199.26
  Q 1011.47 199.02 1010.42 198.75
  Z"
/>
<rect fill="#0b133c" x="-1.77" y="-8.47" transform="translate(1019.27,204.49) rotate(-0.1)" width="3.54" height="16.94" rx="0.70"/>
<path fill="#0b133c" d="
  M 1029.66 206.35
  C 1031.33 211.73 1035.29 209.65 1039.14 209.38
  A 1.32 1.32 0.0 0 1 1039.75 211.92
  C 1032.49 215.02 1024.43 211.23 1026.20 202.21
  C 1028.06 192.69 1042.38 194.20 1040.89 204.47
  A 0.92 0.92 0.0 0 1 1039.98 205.25
  L 1030.48 205.25
  A 0.86 0.85 -8.5 0 0 1029.66 206.35
  Z
  M 1030.27 202.56
  L 1037.29 202.48
  A 0.24 0.24 0.0 0 0 1037.53 202.24
  L 1037.53 202.11
  A 3.65 3.65 0.0 0 0 1033.84 198.50
  L 1033.64 198.50
  A 3.65 3.65 0.0 0 0 1030.03 202.19
  L 1030.03 202.32
  A 0.24 0.24 0.0 0 0 1030.27 202.56
  Z"
/>
<path fill="#0b133c" d="
  M 1071.58 198.70
  C 1064.83 200.61 1067.06 213.57 1075.62 209.33
  A 0.75 0.75 0.0 0 1 1076.66 209.73
  C 1078.30 213.99 1069.96 213.00 1068.29 212.20
  C 1059.59 207.99 1064.61 191.99 1075.93 196.46
  A 1.44 1.43 59.1 0 1 1075.24 199.22
  C 1074.05 199.08 1072.80 198.36 1071.58 198.70
  Z"
/>
<path fill="#0b133c" d="
  M 1083.89 206.34
  C 1085.11 211.11 1089.91 210.48 1093.54 209.21
  A 0.89 0.89 0.0 0 1 1094.68 210.34
  L 1094.35 211.31
  A 1.04 1.04 0.0 0 1 1093.82 211.91
  C 1079.03 218.88 1075.01 195.85 1087.99 195.96
  Q 1095.31 196.02 1095.26 204.23
  A 1.03 1.03 0.0 0 1 1094.23 205.25
  L 1084.73 205.25
  A 0.87 0.87 0.0 0 0 1083.89 206.34
  Z
  M 1084.67 202.52
  L 1091.33 202.52
  A 0.42 0.42 0.0 0 0 1091.75 202.10
  L 1091.75 201.95
  A 3.59 3.39 -0.0 0 0 1088.16 198.56
  L 1087.84 198.56
  A 3.59 3.39 0.0 0 0 1084.25 201.95
  L 1084.25 202.10
  A 0.42 0.42 0.0 0 0 1084.67 202.52
  Z"
/>
<path fill="#0b133c" d="
  M 1099.69 199.19
  Q 1103.47 193.83 1110.69 196.80
  Q 1111.39 197.09 1111.05 197.76
  L 1110.38 199.07
  A 0.70 0.70 0.0 0 1 1109.47 199.40
  C 1100.71 195.58 1099.19 208.43 1106.23 210.28
  A 0.82 0.74 42.1 0 0 1106.62 210.28
  L 1109.53 209.55
  A 1.40 1.40 0.0 0 1 1110.34 212.23
  Q 1103.93 214.47 1100.34 210.51
  C 1097.80 207.70 1097.56 202.20 1099.69 199.19
  Z"
/>
<path fill="#0b133c" d="
  M 1121.9935 213.0496
  A 8.67 8.17 87.2 0 1 1113.4098 204.7891
  A 8.67 8.17 87.2 0 1 1121.1465 195.7304
  A 8.67 8.17 87.2 0 1 1129.7302 203.9909
  A 8.67 8.17 87.2 0 1 1121.9935 213.0496
  Z
  M 1121.5605 210.2400
  A 5.86 4.44 89.8 0 0 1125.9800 204.3645
  A 5.86 4.44 89.8 0 0 1121.5195 198.5200
  A 5.86 4.44 89.8 0 0 1117.1000 204.3955
  A 5.86 4.44 89.8 0 0 1121.5605 210.2400
  Z"
/>
<path fill="#0b133c" d="
  M 1141.9035 213.0724
  A 8.68 8.16 87.6 0 1 1133.3872 204.7417
  A 8.68 8.16 87.6 0 1 1141.1765 195.7276
  A 8.68 8.16 87.6 0 1 1149.6928 204.0583
  A 8.68 8.16 87.6 0 1 1141.9035 213.0724
  Z
  M 1141.4995 210.2400
  A 5.86 4.46 90.2 0 0 1145.9800 204.3956
  A 5.86 4.46 90.2 0 0 1141.5405 198.5200
  A 5.86 4.46 90.2 0 0 1137.0600 204.3644
  A 5.86 4.46 90.2 0 0 1141.4995 210.2400
  Z"
/>
<path fill="#0b133c" d="
  M 1221.42 201.66
  C 1223.00 196.21 1228.08 194.66 1233.22 196.59
  Q 1233.69 196.76 1233.75 197.26
  Q 1233.90 198.47 1232.70 199.03
  Q 1232.23 199.25 1231.74 199.10
  Q 1229.48 198.40 1227.13 199.01
  A 1.01 0.99 -74.9 0 0 1226.62 199.31
  C 1222.44 203.76 1225.25 213.45 1232.78 209.14
  A 0.51 0.51 0.0 0 1 1233.49 209.37
  C 1235.99 215.06 1217.51 215.13 1221.42 201.66
  Z"
/>
<path fill="#0b133c" d="
  M 1245.24 201.53
  C 1246.84 196.02 1252.13 194.67 1257.22 196.72
  Q 1257.83 196.96 1257.57 197.56
  L 1256.92 199.04
  A 0.69 0.69 0.0 0 1 1256.02 199.40
  C 1245.15 194.70 1246.51 214.83 1256.09 209.30
  A 0.91 0.91 0.0 0 1 1257.45 210.04
  C 1257.80 215.86 1241.68 213.79 1245.24 201.53
  Z"
/>
<path fill="#0b133c" d="
  M 1272.04 211.33
  A 0.76 0.75 54.8 0 0 1270.84 211.12
  C 1267.36 214.51 1259.79 213.06 1260.89 207.25
  C 1261.70 202.99 1266.71 201.94 1270.36 202.61
  A 1.24 1.24 0.0 0 0 1271.73 200.91
  C 1270.38 197.68 1267.40 198.38 1264.66 199.60
  A 0.92 0.89 44.1 0 1 1263.93 199.60
  Q 1262.65 199.04 1262.79 197.67
  Q 1262.84 197.12 1263.37 196.93
  C 1276.97 191.85 1275.75 203.70 1275.15 211.98
  A 1.35 1.35 0.0 0 1 1272.60 212.48
  L 1272.04 211.33
  Z
  M 1265.30 205.74
  A 2.17 2.17 0.0 0 0 1264.51 208.27
  C 1266.17 212.72 1271.58 209.26 1271.66 205.23
  A 0.91 0.91 0.0 0 0 1270.84 204.30
  Q 1267.78 204.01 1265.30 205.74
  Z"
/>
<circle fill="#0b133c" cx="22.42" cy="210.56" r="2.39"/>
<circle fill="#0b133c" cx="93.65" cy="210.56" r="2.40"/>
<circle fill="#0b133c" cx="156.51" cy="210.57" r="2.38"/>
<ellipse fill="#0b133c" cx="0.00" cy="0.00" transform="translate(288.71,210.57) rotate(88.9)" rx="2.51" ry="2.31"/>
<circle fill="#0b133c" cx="360.00" cy="210.57" r="2.37"/>
<circle fill="#0b133c" cx="422.83" cy="210.60" r="2.38"/>
<circle fill="#0b133c" cx="658.75" cy="210.59" r="2.40"/>
<circle fill="#0b133c" cx="825.19" cy="210.57" r="2.35"/>
<circle fill="#0b133c" cx="979.29" cy="210.57" r="2.37"/>
<circle fill="#0b133c" cx="1175.23" cy="210.56" r="2.37"/>
<circle fill="#0b133c" cx="1238.99" cy="210.58" r="2.38"/>
</svg>
